<?xml version="1.0" encoding="UTF-8" standalone="no"?>
<!DOCTYPE svg PUBLIC "-//W3C//DTD SVG 1.1//EN" "http://www.w3.org/Graphics/SVG/1.1/DTD/svg11.dtd">
<svg width="100%" height="100%" viewBox="0 0 512 510" version="1.1" xmlns="http://www.w3.org/2000/svg" xmlns:xlink="http://www.w3.org/1999/xlink" xml:space="preserve" xmlns:serif="http://www.serif.com/" style="fill-rule:evenodd;clip-rule:evenodd;stroke-linejoin:round;stroke-miterlimit:2;">
    <g transform="matrix(1.34836,0,0,1.34836,-89.1794,-89.3879)">
        <path d="M348.851,128.063L279.905,186.365L348.851,186.365L348.851,128.063ZM264.943,176.772L365.874,91.423L365.874,186.365L398.118,186.365L398.118,329.786L359.387,329.786L359.387,419.79L264.945,333.128L264.945,417.074L247.922,417.074L247.922,333.168L151.326,419.414L151.326,329.786L113.881,329.786L113.881,186.365L152.613,186.365L152.613,90.768L247.922,175.726L247.922,92.566L264.945,92.566L264.943,176.772ZM235.734,203.388C200.779,203.408 165.841,203.388 130.904,203.388L130.904,312.763L151.319,312.763L151.319,285.642L235.734,203.388ZM277.179,203.388L359.387,285.712L359.387,312.763L381.095,312.763L381.095,203.388C346.478,203.388 311.821,203.408 277.179,203.388ZM234.305,186.365L169.636,128.719L169.636,186.365L234.305,186.365ZM247.922,310.441L247.922,215.241L168.349,292.757L168.349,381.488L247.922,310.441ZM265.174,215.419L265.174,310.282L342.364,381.112C342.364,351.627 342.352,322.169 342.352,292.687L265.174,215.419Z" style="fill:rgb(33,184,205);fill-rule:nonzero;"/>
    </g>
</svg>
